<?xml version="1.0" encoding="UTF-8" standalone="no"?>
<!DOCTYPE svg PUBLIC "-//W3C//DTD SVG 1.1//EN"
 "http://www.w3.org/Graphics/SVG/1.1/DTD/svg11.dtd">
<!-- Generated by graphviz version 2.38.0 (20140413.2041)
 -->
<!-- Title: controllers_diagram Pages: 1 -->
<svg width="595pt" height="597pt"
 viewBox="0.00 0.00 595.27 597.00" xmlns="http://www.w3.org/2000/svg" xmlns:xlink="http://www.w3.org/1999/xlink">
<g id="graph0" class="graph" transform="scale(1 1) rotate(0) translate(243.721 353.5)">
<title>controllers_diagram</title>
<polygon fill="none" stroke="none" points="-243.721,243.5 -243.721,-353.5 351.545,-353.5 351.545,243.5 -243.721,243.5"/>
<!-- _diagram_info -->
<g id="node1" class="node"><title>_diagram_info</title>
<text text-anchor="start" x="-135.688" y="-203.1" font-family="Times,serif" font-size="13.00">Controllers diagram</text>
<text text-anchor="start" x="-135.688" y="-190.1" font-family="Times,serif" font-size="13.00">Date: Mar 29 2017 &#45; 17:56</text>
<text text-anchor="start" x="-135.688" y="-177.1" font-family="Times,serif" font-size="13.00">Migration version: 20170329133409</text>
<text text-anchor="start" x="-135.688" y="-164.1" font-family="Times,serif" font-size="13.00">Generated by RailRoady 1.4.2</text>
<text text-anchor="start" x="-135.688" y="-151.1" font-family="Times,serif" font-size="13.00">http://railroady.prestonlee.com</text>
</g>
<!-- ApplicationController -->
<g id="node2" class="node"><title>ApplicationController</title>
<path fill="none" stroke="black" d="M-4.14844,-257C-4.14844,-257 116.148,-257 116.148,-257 122.148,-257 128.148,-263 128.148,-269 128.148,-269 128.148,-335 128.148,-335 128.148,-341 122.148,-347 116.148,-347 116.148,-347 -4.14844,-347 -4.14844,-347 -10.1484,-347 -16.1484,-341 -16.1484,-335 -16.1484,-335 -16.1484,-269 -16.1484,-269 -16.1484,-263 -10.1484,-257 -4.14844,-257"/>
<text text-anchor="middle" x="56" y="-331.8" font-family="Times,serif" font-size="14.00">ApplicationController</text>
<polyline fill="none" stroke="black" points="-16.1484,-325 128.148,-325 "/>
<text text-anchor="start" x="-8.14844" y="-309.8" font-family="Times,serif" font-size="14.00">after_sign_in_path_for</text>
<polyline fill="none" stroke="black" points="-16.1484,-303 128.148,-303 "/>
<polyline fill="none" stroke="black" points="-16.1484,-279 128.148,-279 "/>
<text text-anchor="start" x="-8.14844" y="-263.8" font-family="Times,serif" font-size="14.00">_layout</text>
</g>
<!-- HomeController -->
<g id="node3" class="node"><title>HomeController</title>
<path fill="none" stroke="black" d="M-35.8794,239C-35.8794,239 47.8794,239 47.8794,239 53.8794,239 59.8794,233 59.8794,227 59.8794,227 59.8794,161 59.8794,161 59.8794,155 53.8794,149 47.8794,149 47.8794,149 -35.8794,149 -35.8794,149 -41.8794,149 -47.8794,155 -47.8794,161 -47.8794,161 -47.8794,227 -47.8794,227 -47.8794,233 -41.8794,239 -35.8794,239"/>
<text text-anchor="middle" x="6" y="164.2" font-family="Times,serif" font-size="14.00">HomeController</text>
<polyline fill="none" stroke="black" points="-47.8794,171 59.8794,171 "/>
<text text-anchor="start" x="-39.8794" y="186.2" font-family="Times,serif" font-size="14.00">index</text>
<polyline fill="none" stroke="black" points="-47.8794,193 59.8794,193 "/>
<polyline fill="none" stroke="black" points="-47.8794,217 59.8794,217 "/>
<text text-anchor="start" x="-39.8794" y="232.2" font-family="Times,serif" font-size="14.00">_layout</text>
</g>
<!-- MeetingsController -->
<g id="node4" class="node"><title>MeetingsController</title>
<path fill="none" stroke="black" d="M-51.8242,111C-51.8242,111 49.8242,111 49.8242,111 55.8242,111 61.8242,105 61.8242,99 61.8242,99 61.8242,-93 61.8242,-93 61.8242,-99 55.8242,-105 49.8242,-105 49.8242,-105 -51.8242,-105 -51.8242,-105 -57.8242,-105 -63.8242,-99 -63.8242,-93 -63.8242,-93 -63.8242,99 -63.8242,99 -63.8242,105 -57.8242,111 -51.8242,111"/>
<text text-anchor="middle" x="-1" y="-89.8" font-family="Times,serif" font-size="14.00">MeetingsController</text>
<polyline fill="none" stroke="black" points="-63.8242,-83 61.8242,-83 "/>
<text text-anchor="start" x="-55.8242" y="-67.8" font-family="Times,serif" font-size="14.00">create</text>
<text text-anchor="start" x="-55.8242" y="-53.8" font-family="Times,serif" font-size="14.00">destroy</text>
<text text-anchor="start" x="-55.8242" y="-39.8" font-family="Times,serif" font-size="14.00">edit</text>
<text text-anchor="start" x="-55.8242" y="-25.8" font-family="Times,serif" font-size="14.00">index</text>
<text text-anchor="start" x="-55.8242" y="-11.8" font-family="Times,serif" font-size="14.00">new</text>
<text text-anchor="start" x="-55.8242" y="2.2" font-family="Times,serif" font-size="14.00">show</text>
<text text-anchor="start" x="-55.8242" y="16.2" font-family="Times,serif" font-size="14.00">update</text>
<polyline fill="none" stroke="black" points="-63.8242,23 61.8242,23 "/>
<polyline fill="none" stroke="black" points="-63.8242,47 61.8242,47 "/>
<text text-anchor="start" x="-55.8242" y="62.2" font-family="Times,serif" font-size="14.00">_layout</text>
<text text-anchor="start" x="-55.8242" y="76.2" font-family="Times,serif" font-size="14.00">meeting_params</text>
<text text-anchor="start" x="-55.8242" y="90.2" font-family="Times,serif" font-size="14.00">set_meeting</text>
<text text-anchor="start" x="-55.8242" y="104.2" font-family="Times,serif" font-size="14.00">set_user_id</text>
</g>
<!-- Users::ConfirmationsController -->
<g id="node5" class="node"><title>Users::ConfirmationsController</title>
<path fill="none" stroke="black" d="M108.338,-33C108.338,-33 277.662,-33 277.662,-33 283.662,-33 289.662,-39 289.662,-45 289.662,-45 289.662,-113 289.662,-113 289.662,-119 283.662,-125 277.662,-125 277.662,-125 108.338,-125 108.338,-125 102.338,-125 96.3379,-119 96.3379,-113 96.3379,-113 96.3379,-45 96.3379,-45 96.3379,-39 102.338,-33 108.338,-33"/>
<text text-anchor="middle" x="193" y="-109.8" font-family="Times,serif" font-size="14.00">Users::ConfirmationsController</text>
<polyline fill="none" stroke="black" points="96.3379,-103 289.662,-103 "/>
<polyline fill="none" stroke="black" points="96.3379,-79 289.662,-79 "/>
<polyline fill="none" stroke="black" points="96.3379,-55 289.662,-55 "/>
<text text-anchor="start" x="104.338" y="-39.8" font-family="Times,serif" font-size="14.00">_layout</text>
</g>
<!-- Users::OmniauthCallbacksController -->
<g id="node6" class="node"><title>Users::OmniauthCallbacksController</title>
<path fill="none" stroke="black" d="M107.796,95C107.796,95 308.204,95 308.204,95 314.204,95 320.204,89 320.204,83 320.204,83 320.204,15 320.204,15 320.204,9 314.204,3 308.204,3 308.204,3 107.796,3 107.796,3 101.796,3 95.7964,9 95.7964,15 95.7964,15 95.7964,83 95.7964,83 95.7964,89 101.796,95 107.796,95"/>
<text text-anchor="middle" x="208" y="18.2" font-family="Times,serif" font-size="14.00">Users::OmniauthCallbacksController</text>
<polyline fill="none" stroke="black" points="95.7964,25 320.204,25 "/>
<polyline fill="none" stroke="black" points="95.7964,49 320.204,49 "/>
<polyline fill="none" stroke="black" points="95.7964,73 320.204,73 "/>
<text text-anchor="start" x="103.796" y="88.2" font-family="Times,serif" font-size="14.00">_layout</text>
</g>
<!-- Users::PasswordsController -->
<g id="node7" class="node"><title>Users::PasswordsController</title>
<path fill="none" stroke="black" d="M107.838,223C107.838,223 256.162,223 256.162,223 262.162,223 268.162,217 268.162,211 268.162,211 268.162,143 268.162,143 268.162,137 262.162,131 256.162,131 256.162,131 107.838,131 107.838,131 101.838,131 95.8379,137 95.8379,143 95.8379,143 95.8379,211 95.8379,211 95.8379,217 101.838,223 107.838,223"/>
<text text-anchor="middle" x="182" y="146.2" font-family="Times,serif" font-size="14.00">Users::PasswordsController</text>
<polyline fill="none" stroke="black" points="95.8379,153 268.162,153 "/>
<polyline fill="none" stroke="black" points="95.8379,177 268.162,177 "/>
<polyline fill="none" stroke="black" points="95.8379,201 268.162,201 "/>
<text text-anchor="start" x="103.838" y="216.2" font-family="Times,serif" font-size="14.00">_layout</text>
</g>
<!-- Users::RegistrationsController -->
<g id="node8" class="node"><title>Users::RegistrationsController</title>
<path fill="none" stroke="black" d="M172.455,-161C172.455,-161 335.545,-161 335.545,-161 341.545,-161 347.545,-167 347.545,-173 347.545,-173 347.545,-241 347.545,-241 347.545,-247 341.545,-253 335.545,-253 335.545,-253 172.455,-253 172.455,-253 166.455,-253 160.455,-247 160.455,-241 160.455,-241 160.455,-173 160.455,-173 160.455,-167 166.455,-161 172.455,-161"/>
<text text-anchor="middle" x="254" y="-237.8" font-family="Times,serif" font-size="14.00">Users::RegistrationsController</text>
<polyline fill="none" stroke="black" points="160.455,-231 347.545,-231 "/>
<polyline fill="none" stroke="black" points="160.455,-207 347.545,-207 "/>
<polyline fill="none" stroke="black" points="160.455,-183 347.545,-183 "/>
<text text-anchor="start" x="168.455" y="-167.8" font-family="Times,serif" font-size="14.00">_layout</text>
</g>
<!-- Users::SessionsController -->
<g id="node9" class="node"><title>Users::SessionsController</title>
<path fill="none" stroke="black" d="M-227.721,239C-227.721,239 -90.2793,239 -90.2793,239 -84.2793,239 -78.2793,233 -78.2793,227 -78.2793,227 -78.2793,159 -78.2793,159 -78.2793,153 -84.2793,147 -90.2793,147 -90.2793,147 -227.721,147 -227.721,147 -233.721,147 -239.721,153 -239.721,159 -239.721,159 -239.721,227 -239.721,227 -239.721,233 -233.721,239 -227.721,239"/>
<text text-anchor="middle" x="-159" y="162.2" font-family="Times,serif" font-size="14.00">Users::SessionsController</text>
<polyline fill="none" stroke="black" points="-239.721,169 -78.2793,169 "/>
<polyline fill="none" stroke="black" points="-239.721,193 -78.2793,193 "/>
<polyline fill="none" stroke="black" points="-239.721,217 -78.2793,217 "/>
<text text-anchor="start" x="-231.721" y="232.2" font-family="Times,serif" font-size="14.00">_layout</text>
</g>
<!-- Users::UnlocksController -->
<g id="node10" class="node"><title>Users::UnlocksController</title>
<path fill="none" stroke="black" d="M-195.935,-257C-195.935,-257 -60.0654,-257 -60.0654,-257 -54.0654,-257 -48.0654,-263 -48.0654,-269 -48.0654,-269 -48.0654,-337 -48.0654,-337 -48.0654,-343 -54.0654,-349 -60.0654,-349 -60.0654,-349 -195.935,-349 -195.935,-349 -201.935,-349 -207.935,-343 -207.935,-337 -207.935,-337 -207.935,-269 -207.935,-269 -207.935,-263 -201.935,-257 -195.935,-257"/>
<text text-anchor="middle" x="-128" y="-333.8" font-family="Times,serif" font-size="14.00">Users::UnlocksController</text>
<polyline fill="none" stroke="black" points="-207.935,-327 -48.0654,-327 "/>
<polyline fill="none" stroke="black" points="-207.935,-303 -48.0654,-303 "/>
<polyline fill="none" stroke="black" points="-207.935,-279 -48.0654,-279 "/>
<text text-anchor="start" x="-199.935" y="-263.8" font-family="Times,serif" font-size="14.00">_layout</text>
</g>
<!-- UsersController -->
<g id="node11" class="node"><title>UsersController</title>
<path fill="none" stroke="black" d="M-212.035,15C-212.035,15 -111.965,15 -111.965,15 -105.965,15 -99.9653,9 -99.9653,3 -99.9653,3 -99.9653,-105 -99.9653,-105 -99.9653,-111 -105.965,-117 -111.965,-117 -111.965,-117 -212.035,-117 -212.035,-117 -218.035,-117 -224.035,-111 -224.035,-105 -224.035,-105 -224.035,3 -224.035,3 -224.035,9 -218.035,15 -212.035,15"/>
<text text-anchor="middle" x="-162" y="-101.8" font-family="Times,serif" font-size="14.00">UsersController</text>
<polyline fill="none" stroke="black" points="-224.035,-95 -99.9653,-95 "/>
<text text-anchor="start" x="-216.035" y="-79.8" font-family="Times,serif" font-size="14.00">current_user_home</text>
<text text-anchor="start" x="-216.035" y="-65.8" font-family="Times,serif" font-size="14.00">index</text>
<text text-anchor="start" x="-216.035" y="-51.8" font-family="Times,serif" font-size="14.00">show</text>
<polyline fill="none" stroke="black" points="-224.035,-45 -99.9653,-45 "/>
<polyline fill="none" stroke="black" points="-224.035,-21 -99.9653,-21 "/>
<text text-anchor="start" x="-216.035" y="-5.8" font-family="Times,serif" font-size="14.00">_layout</text>
<text text-anchor="start" x="-216.035" y="8.2" font-family="Times,serif" font-size="14.00">find_user</text>
</g>
</g>
</svg>
