<?xml version="1.0" encoding="UTF-8" standalone="no"?>
<!DOCTYPE svg PUBLIC "-//W3C//DTD SVG 1.1//EN"
 "http://www.w3.org/Graphics/SVG/1.1/DTD/svg11.dtd">
<!-- Generated by graphviz version 2.38.0 (20140413.2041)
 -->
<!-- Title: models_diagram Pages: 1 -->
<svg width="553pt" height="153pt"
 viewBox="0.00 0.00 552.69 153.00" xmlns="http://www.w3.org/2000/svg" xmlns:xlink="http://www.w3.org/1999/xlink">
<g id="graph0" class="graph" transform="scale(1 1) rotate(0) translate(4 149)">
<title>models_diagram</title>
<polygon fill="none" stroke="none" points="-4,4 -4,-149 548.688,-149 548.688,4 -4,4"/>
<!-- _diagram_info -->
<g id="node1" class="node"><title>_diagram_info</title>
<text text-anchor="start" x="8" y="-130.6" font-family="Times,serif" font-size="13.00">Models diagram</text>
<text text-anchor="start" x="8" y="-117.6" font-family="Times,serif" font-size="13.00">Date: Mar 29 2017 &#45; 17:56</text>
<text text-anchor="start" x="8" y="-104.6" font-family="Times,serif" font-size="13.00">Migration version: 20170329133409</text>
<text text-anchor="start" x="8" y="-91.6" font-family="Times,serif" font-size="13.00">Generated by RailRoady 1.4.2</text>
<text text-anchor="start" x="8" y="-78.6" font-family="Times,serif" font-size="13.00">http://railroady.prestonlee.com</text>
</g>
<!-- ApplicationRecord -->
<g id="node2" class="node"><title>ApplicationRecord</title>
<ellipse fill="none" stroke="black" cx="302.688" cy="-108.5" rx="77.2916" ry="18"/>
<text text-anchor="middle" x="302.688" y="-104.3" font-family="Times,serif" font-size="14.00">ApplicationRecord</text>
</g>
<!-- Meeting -->
<g id="node3" class="node"><title>Meeting</title>
<ellipse fill="none" stroke="black" cx="476.688" cy="-18" rx="39.6558" ry="18"/>
<text text-anchor="middle" x="476.688" y="-13.8" font-family="Times,serif" font-size="14.00">Meeting</text>
</g>
<!-- Priority -->
<g id="node4" class="node"><title>Priority</title>
<ellipse fill="none" stroke="black" cx="435.688" cy="-108.5" rx="37.2594" ry="18"/>
<text text-anchor="middle" x="435.688" y="-104.3" font-family="Times,serif" font-size="14.00">Priority</text>
</g>
<!-- Priority&#45;&gt;Meeting -->
<g id="edge1" class="edge"><title>Priority&#45;&gt;Meeting</title>
<path fill="none" stroke="#df4fdd" d="M446.857,-83.3912C452.361,-71.5108 459.005,-57.1681 464.625,-45.0374"/>
<ellipse fill="none" stroke="#df4fdd" cx="445.081" cy="-87.2244" rx="4.00002" ry="4.00002"/>
<polygon fill="#df4fdd" stroke="#df4fdd" points="464.668,-44.946 472.954,-37.7641 466.769,-40.4092 468.871,-35.8724 468.871,-35.8724 468.871,-35.8724 466.769,-40.4092 464.788,-33.9808 464.668,-44.946 464.668,-44.946"/>
</g>
<!-- User -->
<g id="node5" class="node"><title>User</title>
<ellipse fill="none" stroke="black" cx="517.688" cy="-108.5" rx="27" ry="18"/>
<text text-anchor="middle" x="517.688" y="-104.3" font-family="Times,serif" font-size="14.00">User</text>
</g>
<!-- User&#45;&gt;Meeting -->
<g id="edge2" class="edge"><title>User&#45;&gt;Meeting</title>
<path fill="none" stroke="#5e236c" d="M506.519,-83.3912C501.015,-71.5108 494.37,-57.1681 488.75,-45.0374"/>
<ellipse fill="none" stroke="#5e236c" cx="508.294" cy="-87.2244" rx="4.00002" ry="4.00002"/>
<polygon fill="#5e236c" stroke="#5e236c" points="488.708,-44.946 488.587,-33.9808 486.606,-40.4092 484.504,-35.8724 484.504,-35.8724 484.504,-35.8724 486.606,-40.4092 480.421,-37.7641 488.708,-44.946 488.708,-44.946"/>
</g>
</g>
</svg>
