<?xml version="1.0" encoding="UTF-8" standalone="no"?>
<!DOCTYPE svg PUBLIC "-//W3C//DTD SVG 1.1//EN"
 "http://www.w3.org/Graphics/SVG/1.1/DTD/svg11.dtd">
<!-- Generated by graphviz version 2.38.0 (20140413.2041)
 -->
<!-- Title: models_diagram Pages: 1 -->
<svg width="762pt" height="414pt"
 viewBox="0.00 0.00 761.97 414.00" xmlns="http://www.w3.org/2000/svg" xmlns:xlink="http://www.w3.org/1999/xlink">
<g id="graph0" class="graph" transform="scale(1 1) rotate(0) translate(4 410)">
<title>models_diagram</title>
<polygon fill="none" stroke="none" points="-4,4 -4,-410 757.966,-410 757.966,4 -4,4"/>
<!-- _diagram_info -->
<g id="node1" class="node"><title>_diagram_info</title>
<text text-anchor="start" x="8" y="-321.6" font-family="Times,serif" font-size="13.00">Models diagram</text>
<text text-anchor="start" x="8" y="-308.6" font-family="Times,serif" font-size="13.00">Date: Mar 29 2017 &#45; 17:56</text>
<text text-anchor="start" x="8" y="-295.6" font-family="Times,serif" font-size="13.00">Migration version: 20170329133409</text>
<text text-anchor="start" x="8" y="-282.6" font-family="Times,serif" font-size="13.00">Generated by RailRoady 1.4.2</text>
<text text-anchor="start" x="8" y="-269.6" font-family="Times,serif" font-size="13.00">http://railroady.prestonlee.com</text>
</g>
<!-- ApplicationRecord -->
<g id="node2" class="node"><title>ApplicationRecord</title>
<ellipse fill="none" stroke="black" cx="302.688" cy="-299.5" rx="77.2916" ry="18"/>
<text text-anchor="middle" x="302.688" y="-295.3" font-family="Times,serif" font-size="14.00">ApplicationRecord</text>
</g>
<!-- Meeting -->
<g id="node3" class="node"><title>Meeting</title>
<path fill="none" stroke="black" d="M503.182,-0.5C503.182,-0.5 612.193,-0.5 612.193,-0.5 618.193,-0.5 624.193,-6.5 624.193,-12.5 624.193,-12.5 624.193,-144.5 624.193,-144.5 624.193,-150.5 618.193,-156.5 612.193,-156.5 612.193,-156.5 503.182,-156.5 503.182,-156.5 497.182,-156.5 491.182,-150.5 491.182,-144.5 491.182,-144.5 491.182,-12.5 491.182,-12.5 491.182,-6.5 497.182,-0.5 503.182,-0.5"/>
<text text-anchor="middle" x="557.688" y="-141.3" font-family="Times,serif" font-size="14.00">Meeting</text>
<polyline fill="none" stroke="black" points="491.182,-134.5 624.193,-134.5 "/>
<text text-anchor="start" x="499.182" y="-119.3" font-family="Times,serif" font-size="14.00">id :INTEGER</text>
<text text-anchor="start" x="499.182" y="-105.3" font-family="Times,serif" font-size="14.00">name :varchar</text>
<text text-anchor="start" x="499.182" y="-91.3" font-family="Times,serif" font-size="14.00">start_time :datetime</text>
<text text-anchor="start" x="499.182" y="-77.3" font-family="Times,serif" font-size="14.00">created_at :datetime</text>
<text text-anchor="start" x="499.182" y="-63.3" font-family="Times,serif" font-size="14.00">updated_at :datetime</text>
<text text-anchor="start" x="499.182" y="-49.3" font-family="Times,serif" font-size="14.00">user_id :integer</text>
<text text-anchor="start" x="499.182" y="-35.3" font-family="Times,serif" font-size="14.00">end_time :datetime</text>
<text text-anchor="start" x="499.182" y="-21.3" font-family="Times,serif" font-size="14.00">description :text</text>
<text text-anchor="start" x="499.182" y="-7.3" font-family="Times,serif" font-size="14.00">priority_id :integer</text>
</g>
<!-- Priority -->
<g id="node4" class="node"><title>Priority</title>
<path fill="none" stroke="black" d="M410.182,-256.5C410.182,-256.5 519.193,-256.5 519.193,-256.5 525.193,-256.5 531.193,-262.5 531.193,-268.5 531.193,-268.5 531.193,-330.5 531.193,-330.5 531.193,-336.5 525.193,-342.5 519.193,-342.5 519.193,-342.5 410.182,-342.5 410.182,-342.5 404.182,-342.5 398.182,-336.5 398.182,-330.5 398.182,-330.5 398.182,-268.5 398.182,-268.5 398.182,-262.5 404.182,-256.5 410.182,-256.5"/>
<text text-anchor="middle" x="464.688" y="-327.3" font-family="Times,serif" font-size="14.00">Priority</text>
<polyline fill="none" stroke="black" points="398.182,-320.5 531.193,-320.5 "/>
<text text-anchor="start" x="406.182" y="-305.3" font-family="Times,serif" font-size="14.00">id :INTEGER</text>
<text text-anchor="start" x="406.182" y="-291.3" font-family="Times,serif" font-size="14.00">name :varchar</text>
<text text-anchor="start" x="406.182" y="-277.3" font-family="Times,serif" font-size="14.00">created_at :datetime</text>
<text text-anchor="start" x="406.182" y="-263.3" font-family="Times,serif" font-size="14.00">updated_at :datetime</text>
</g>
<!-- Priority&#45;&gt;Meeting -->
<g id="edge1" class="edge"><title>Priority&#45;&gt;Meeting</title>
<path fill="none" stroke="#8ae187" d="M485.796,-248.794C496.182,-224.336 509.006,-194.137 520.934,-166.048"/>
<ellipse fill="none" stroke="#8ae187" cx="484.183" cy="-252.593" rx="4.00002" ry="4.00002"/>
<polygon fill="#8ae187" stroke="#8ae187" points="521.032,-165.819 529.082,-158.374 522.986,-161.217 524.94,-156.615 524.94,-156.615 524.94,-156.615 522.986,-161.217 520.798,-154.856 521.032,-165.819 521.032,-165.819"/>
</g>
<!-- User -->
<g id="node5" class="node"><title>User</title>
<path fill="none" stroke="black" d="M561.41,-193.5C561.41,-193.5 741.966,-193.5 741.966,-193.5 747.966,-193.5 753.966,-199.5 753.966,-205.5 753.966,-205.5 753.966,-393.5 753.966,-393.5 753.966,-399.5 747.966,-405.5 741.966,-405.5 741.966,-405.5 561.41,-405.5 561.41,-405.5 555.41,-405.5 549.41,-399.5 549.41,-393.5 549.41,-393.5 549.41,-205.5 549.41,-205.5 549.41,-199.5 555.41,-193.5 561.41,-193.5"/>
<text text-anchor="middle" x="651.688" y="-390.3" font-family="Times,serif" font-size="14.00">User</text>
<polyline fill="none" stroke="black" points="549.41,-383.5 753.966,-383.5 "/>
<text text-anchor="start" x="557.41" y="-368.3" font-family="Times,serif" font-size="14.00">id :INTEGER</text>
<text text-anchor="start" x="557.41" y="-354.3" font-family="Times,serif" font-size="14.00">email :varchar</text>
<text text-anchor="start" x="557.41" y="-340.3" font-family="Times,serif" font-size="14.00">encrypted_password :varchar</text>
<text text-anchor="start" x="557.41" y="-326.3" font-family="Times,serif" font-size="14.00">reset_password_token :varchar</text>
<text text-anchor="start" x="557.41" y="-312.3" font-family="Times,serif" font-size="14.00">reset_password_sent_at :datetime</text>
<text text-anchor="start" x="557.41" y="-298.3" font-family="Times,serif" font-size="14.00">remember_created_at :datetime</text>
<text text-anchor="start" x="557.41" y="-284.3" font-family="Times,serif" font-size="14.00">sign_in_count :integer</text>
<text text-anchor="start" x="557.41" y="-270.3" font-family="Times,serif" font-size="14.00">current_sign_in_at :datetime</text>
<text text-anchor="start" x="557.41" y="-256.3" font-family="Times,serif" font-size="14.00">last_sign_in_at :datetime</text>
<text text-anchor="start" x="557.41" y="-242.3" font-family="Times,serif" font-size="14.00">current_sign_in_ip :varchar</text>
<text text-anchor="start" x="557.41" y="-228.3" font-family="Times,serif" font-size="14.00">last_sign_in_ip :varchar</text>
<text text-anchor="start" x="557.41" y="-214.3" font-family="Times,serif" font-size="14.00">created_at :datetime</text>
<text text-anchor="start" x="557.41" y="-200.3" font-family="Times,serif" font-size="14.00">updated_at :datetime</text>
</g>
<!-- User&#45;&gt;Meeting -->
<g id="edge2" class="edge"><title>User&#45;&gt;Meeting</title>
<path fill="none" stroke="#53520c" d="M603.369,-185.927C600.517,-179.283 597.672,-172.654 594.875,-166.138"/>
<ellipse fill="none" stroke="#53520c" cx="605.037" cy="-189.814" rx="4.00002" ry="4.00002"/>
<polygon fill="#53520c" stroke="#53520c" points="594.761,-165.873 594.952,-154.909 592.789,-161.278 590.817,-156.684 590.817,-156.684 590.817,-156.684 592.789,-161.278 586.682,-158.458 594.761,-165.873 594.761,-165.873"/>
</g>
</g>
</svg>
